<svg width="32" height="32" viewBox="0 0 32 32" fill="none" xmlns="http://www.w3.org/2000/svg">
  <rect width="32" height="32" rx="8" fill="#2563eb"/>
  <path d="M8 12h3.2c.88 0 1.6.72 1.6 1.6v1.6c0 .88.72 1.6 1.6 1.6s1.6.72 1.6 1.6v4.72M11.2 6.32V8.8c0 1.32 1.08 2.4 2.4 2.4h.8c.88 0 1.6.72 1.6 1.6s.72 1.6 1.6 1.6 1.6.72 1.6 1.6h1.7M20 18.78V16.8c0-.88.72-1.6 1.6-1.6h4.9M28 16c0 6.627-5.373 12-12 12S4 22.627 4 16 9.373 4 16 4s12 5.373 12 12z" stroke="white" stroke-width="1.5" stroke-linecap="round" stroke-linejoin="round"/>
</svg>